<?xml version="1.0" standalone="no"?>
<!DOCTYPE svg PUBLIC "-//W3C//DTD SVG 20010904//EN"
 "http://www.w3.org/TR/2001/REC-SVG-20010904/DTD/svg10.dtd">
<svg version="1.0" xmlns="http://www.w3.org/2000/svg"
 width="500.000000pt" height="500.000000pt" viewBox="0 0 500.000000 500.000000"
 preserveAspectRatio="xMidYMid meet">
<metadata>
Created by potrace 1.14, written by Peter Selinger 2001-2017
</metadata>
<g transform="translate(0.000000,500.000000) scale(0.100000,-0.100000)"
fill="#000000" stroke="none">
<path d="M0 2500 l0 -2500 2500 0 2500 0 0 2500 0 2500 -2500 0 -2500 0 0
-2500z m4637 1223 c14 -21 18 -54 21 -163 4 -125 2 -140 -18 -180 -20 -38 -21
-47 -10 -86 7 -24 9 -59 6 -78 -7 -34 -106 -197 -151 -246 -12 -14 -25 -43
-28 -64 -9 -60 -82 -126 -139 -126 -13 0 -34 7 -46 16 -21 15 -25 13 -70 -19
-26 -18 -83 -53 -127 -77 -177 -95 -242 -140 -314 -215 -39 -41 -71 -80 -71
-86 0 -6 17 -43 37 -81 26 -50 72 -108 159 -199 116 -123 126 -137 200 -279
72 -140 82 -154 140 -200 68 -53 80 -74 65 -113 -15 -39 -52 -59 -103 -55 -38
3 -46 8 -73 48 -16 25 -41 57 -55 71 -14 14 -45 64 -70 110 -47 90 -134 185
-246 269 -206 156 -380 306 -395 341 -6 16 -9 35 -5 44 20 52 -84 -38 -117
-101 -52 -101 -146 -513 -154 -679 -6 -126 3 -155 50 -155 81 0 140 -88 84
-124 -26 -18 -160 -32 -201 -22 -36 9 -45 32 -66 165 -29 183 -32 249 -21 372
7 63 20 232 30 375 l17 262 47 58 47 59 -153 6 c-83 4 -161 10 -173 14 -18 6
-25 -1 -49 -47 -15 -29 -44 -78 -65 -108 -20 -30 -50 -77 -65 -105 -16 -27
-69 -93 -119 -145 -93 -97 -149 -184 -161 -253 -16 -84 83 -207 226 -281 134
-70 157 -110 94 -165 -28 -25 -45 -31 -80 -31 -39 0 -47 4 -75 40 -30 38 -225
215 -324 294 -57 46 -86 90 -86 130 0 18 24 70 64 135 79 133 121 216 131 260
11 50 -3 136 -28 173 -27 39 -82 78 -110 78 -13 0 -78 -56 -171 -148 -116
-113 -172 -160 -241 -201 -166 -99 -332 -219 -388 -282 -63 -70 -121 -175
-165 -299 -46 -132 -48 -171 -16 -270 34 -102 29 -108 -77 -106 l-72 1 -24 65
c-37 97 -33 144 21 277 25 62 64 178 86 259 23 81 45 155 51 165 5 10 35 36
67 58 60 41 102 83 168 166 74 93 70 85 36 85 -24 0 -32 -6 -40 -30 -8 -21
-26 -37 -70 -59 -32 -16 -73 -42 -90 -56 -52 -44 -178 -123 -265 -167 -45 -22
-93 -49 -106 -59 -17 -14 -40 -19 -80 -19 -45 0 -64 -5 -91 -25 -47 -34 -89
-44 -144 -34 -57 11 -86 25 -86 44 0 8 -11 22 -24 30 -26 17 -40 73 -27 108
17 45 117 149 185 194 152 100 328 280 575 588 110 137 122 148 221 211 169
108 487 271 550 282 70 13 104 26 160 62 122 78 334 106 745 97 384 -9 515
-23 670 -75 69 -23 95 -27 185 -25 131 2 242 12 259 23 9 5 16 42 21 106 7 94
27 171 51 201 30 36 126 -9 195 -91 l38 -46 71 -1 c38 0 79 -4 90 -8 16 -7 34
5 94 61 70 65 131 107 158 108 7 0 20 -12 30 -27z"/>
<path d="M4106 3181 c-11 -17 34 -59 70 -65 20 -4 38 -5 41 -3 6 7 -12 41 -33
61 -17 17 -69 22 -78 7z"/>
<path d="M4423 3168 c-6 -7 -13 -21 -16 -30 -5 -15 -1 -18 22 -18 28 0 81 33
81 51 0 14 -76 11 -87 -3z"/>
<path d="M4323 2933 c-24 -9 -14 -49 17 -71 28 -21 31 -22 55 -6 27 17 33 52
13 72 -12 12 -62 15 -85 5z"/>
</g>
</svg>
